# xmcd
#
# Track frame offsets: 
#        150
#        70972
#        131132
#
# Disc length: 3495 seconds
#
# Revision: 2
# Processed by: cddbd v1.5.2PL0 Copyright (c) Steve Scherf et al.
# Submitted via: ExactAudioCopy v0.99pb1
#
DISCID=290da503
DTITLE=Nusrat Fateh Ali Khan - Nusrat Fateh Ali Khan
DYEAR=1900
DGENRE=
TTITLE0=Shada Sookhan Diyan Nindran
TTITLE1=Jadon Yad Sajan Teri Aaqi
TTITLE2=Main Chithi Panwan Sajanan Noon
EXTD=
EXTT0=
EXTT1=
EXTT2=
PLAYORDER=
